<svg xmlns="http://www.w3.org/2000/svg" viewBox="0 0 554.9 498.6" width="555" height="499"><path fill="#fff" d="M479.8 406.3h-75.3l8.7 23h47.1l-30.5 47h-48.7l-36.6-60.7 36.6-54.3h76.4l-9.7-21h-80.7l-50 74.8 50 84.2h78l44.5-70.6-9.8-22.4zm.8-41h73.7l-24.4-45h-43.2l-24.9 40.6 21.8 43.4h41.6l8.6-15h-42Zm40.4-33 10.5 20h-43.8l10.9-20ZM85.1 389.6l-.7-4.6 5.7.2 4.7.8 9.1 3.9c6.5 2.8 8.4 3.8 9.7 8 .8 2.5-1.1 7.6-5.7 7.5-2.5 0-2.6-.7-6.2-3.3s-7.6-5.6-9.2-7Zm103.1-167s-8.4-3.3-25.4-11.9c-6.2-3.1-17.7-9.9-24.9-21.7l-4.3-7.7c-4.7 12-2.7 20.5.5 25.9a25.2 25.2 0 0 0 5.3 6.2c-.9 7.6 1.5 12.5 3.4 18.9h-2.6c-5.5.7-7.8 4-7.8 4a12.1 12.1 0 0 0-2.4 5.8l10.2.2c2.6-.1 8.4 1 10.3 1.2 6.4.7 14 1.8 20.6 1.2 8.2-.6 22.6-2.3 26.3-2.5a41.6 41.6 0 0 1 8.7.1l5.7 2.5 5.6-8.5s-16.9-9.5-29.2-13.7ZM151 232.9l.4-15.3c17.3 8.4 20.6 9.8 25.1 11.4s9.8 4 9.8 4-14.8 4.6-35.3-.1Zm75.3-118.5L212 91.3h-23a4.4 4.4 0 0 0-4.4 4.3 4.3 4.3 0 0 0 4.3 4.3h16.3l12.3 18.9a5.4 5.4 0 0 0 4.7 2.8 4.8 4.8 0 0 0 4-7.2Zm48-13.4a4.6 4.6 0 0 0-4.6-4.7h-24.1a3.8 3.8 0 0 0-1.7.7 4.8 4.8 0 0 0-2.3 4 5.2 5.2 0 0 0 4.1 4.7H270a4.8 4.8 0 0 0 4.3-4.7Zm57.5 251.2a4.6 4.6 0 0 0-4.5-4.9h-25.4a4 4 0 0 0-1.8.7 5 5 0 0 0-2.4 4.2 5.4 5.4 0 0 0 4.3 4.9h25.4a4.9 4.9 0 0 0 4.4-4.9Zm-4.3-68.2a4.6 4.6 0 0 0-4.6-4.7h-24.1a3.8 3.8 0 0 0-1.7.7 4.8 4.8 0 0 0-2.3 4 5.2 5.2 0 0 0 4.1 4.7H323a5 5 0 0 0 4.5-4.7Zm87.5 15.2a5.2 5.2 0 0 0 1.5-7.2l-15-22.3a4.2 4.2 0 0 0-1.7-1.2 5.3 5.3 0 0 0-5.2.3c-2.1 1.4-2.6 4.6-1.8 6.7.1.3 15.1 22.6 15.1 22.6a5.3 5.3 0 0 0 7.1 1.1Zm-84.3-87.1a4.7 4.7 0 0 0-4.5-4.9H303a3.5 3.5 0 0 0-1.7.7 5 5 0 0 0-2.3 4.2 5.3 5.3 0 0 0 4 4.9h23.6a4.8 4.8 0 0 0 4.1-4.9Zm2-122.8h-29.6l-16.4 28.9a5.9 5.9 0 0 0 2.1 7.8 5.7 5.7 0 0 0 7.8-1.5l.2-.3 14.2-23.9h21.5a5.5 5.5 0 0 0 5.2-5.4 5.4 5.4 0 0 0-5-5.6Zm-48.3 202a5 5 0 0 0-6.7.9l-15.9 23.1h-31.4a5 5 0 0 0 0 9.9h36.7l18.8-27.4a5 5 0 0 0-1.5-6.5Zm85.7-14.5a5.8 5.8 0 0 0-9.6-6.7l-.4.5-21.9 31.2 20.3 25.2.4.5a5.7 5.7 0 0 0 8.7-7.2l-.4-.5-14.7-18 17.5-25.1Zm19.2-77.5h-.1l-.3-.5a5.2 5.2 0 0 0-6.6-1.6 4.9 4.9 0 0 0-2 6.3l11.1 19.5-15.6 20.8-.3.5a4.9 4.9 0 0 0 1.3 6.5 5.2 5.2 0 0 0 6.7-.9l19.7-27Zm12.8-73 24.3-32.8a3.2 3.2 0 0 0 1-2.4 2.7 2.7 0 0 0-.9-1.9l-8.9-7.9c-.6-.6-2.2-2-3.2-2a3 3 0 0 0-2.4 1.1l-1.8 2.4-15.7 21.4h-23.7l-15-23.6 16-24.4h28.5a5 5 0 1 0 0-10h-34.8l-23.2 34.2 19.9 31.9h36.4l17.9-23.5 1.8 1.5-20.1 26h-41.3l-25 39.1 20 31.4-21.1 32.5h-31.4v.2h-.1a4.9 4.9 0 1 0 0 9.9h39.2l23.1-36H390l19 30.2-21.5 30.8h-34.7l-27 38h-32.2L266.1 333l24.3 39.3h32.5l-23 32c-10.9 5.1-47.2 22.8-85.8 38-41.6 16.4-78.7 30.2-83.7 32-10.8 3.8-20.6 7.5-28.1 8.7s-15.2-1.3-26.1-6.4c-4.7-2.2-10.1-4.2-14.1-9.2-1.5-1.8-1.3-3.8-1-6 .5-4.2 2-10.9 2.6-13.4 1.5-6.5 3.2-10.3 4.7-16.4s4.1-13.9 2.9-21.4-9.6-8.6-12.3-10.2-5.1-2.8-2.6-8 3.9-4.8 5.9-7.5 2-5.4 2.8-6.8c6.1 5.4 9.3 7.6 15.1 7.9.4-4.6-1.1-7.3-2.3-8.4l-.4-.3-3.2-2.5-4.9-4.1-5.9-6.3c-4.5-6.8-11-13.4-10.3-17.3.4-2.4 7.5-8 8.9-9.5s3.5-3.5 5.2-5.8l8.1 3.3s2.5-16.2-1.1-24.1c-7-15.8-23.4-15.5-43.9-27C5.2 269.5 8 271 39.8 243.4c7.9-6.9 31.3-27.2 46.2-43.5 11.2-12.2 16.1-25.2 15.3-34.4-.6-6.8-5.6-17.5-6.4-24.9-1.7-15.9 1-19.5 2.5-23.7 0 0 2.8-6 13.6-25.4a239.9 239.9 0 0 1 28-40.7A486 486 0 0 1 173.8 13l2.2 3-15.4 15.9a4.2 4.2 0 0 0-1.8 3.4 4.7 4.7 0 0 0 4 4.8 4.3 4.3 0 0 0 3.1-.6l15.7-16.2h33.7l17.6 28.6-17.6 25.4H186s-4.5.7-4.5 5.1a4.9 4.9 0 0 0 5.1 4.9h28.8l17.4 27.9-10.6 15.1-9.3 13v.6a5.9 5.9 0 0 0 10.3 5.9h.1l20.8-30.5H281l20.5-34h32v-.5a4.7 4.7 0 0 0 4.7-4.7 4.7 4.7 0 0 0-4.7-4.8h-40.1l-19.5 34h-32l-16.6-27.1 20.5-30.3-23.4-37.6H188l-3.5-5.7-2-3.2C180 2 179.7 1.2 176 .7s-5 .8-10.2 5.3A372.8 372.8 0 0 0 138 34.9c-14 16.5-35.6 42.9-52.8 81.4 0 0-5.9 23 .7 37.5 3.1 6.8 3.1 14.1-.7 25.3s-52.3 54.4-52.5 54.6l-16.4 14.5s-6.3 5.8-8.2 7.4c-9.9 8.4-9.4 10.9-7.9 14.8 2.6 7 12.2 15.7 22.5 21.2 12 6.4 24.9 12.3 30.7 22.3 3.7 6.2 3.8 8.5 3 10.8-4.5 5.9-14.1 18.4-14.7 19.5s.5 7.1.5 7.1 5.1 5.8 11.4 14.4c2.5 3.8 5.7 7.6-2.9 15.5-6.4 5.9-7.4 15.1-4.6 20.6s8.2 4.3 8.6 12.1c.2 2.6 0 11.3-.4 15.6-1.2 8.5-2.5 18.9-3 22.2-1.2 8.2-2.7 12.2-.7 18.7 1.1 3.7 6.4 9.1 10.2 11.7 9.3 6.3 23.4 10.5 27.7 11.5 8.6 2.1 11.7 3.1 19 1.7 5.7-1.1 17.1-5.9 29.6-10.7l37.9-14.2c2.1-.8 20.2-8.1 41.9-17.2 37.4-15.8 91.7-41.1 91.7-41.1l31.6-44.6a9.8 9.8 0 0 0 1.6-3.2c.3-2.3-1.3-3.8-4.3-4h-39.7l-17.3-27.5 19.7-30.5h32.9l26.9-39h35.6l27.5-39.8-25.1-39.2h-35.6l-19.2-28.7 19.2-29.3Z"/></svg>