<svg xmlns="http://www.w3.org/2000/svg" viewBox="0 0 560 500"><g style="fill:#fff"><polygon points="482.37 407 407.06 407 415.71 430 462.9 430 432.4 477 383.64 477 347.04 416.34 383.64 362 460.08 362 450.36 341 369.67 341 319.64 415.83 369.67 500 447.65 500 492.13 429.45 482.37 407"/><path d="M483.15,366h73.68l-24.41-45H489.31l-24.89,40.56L486.2,405h41.57l8.6-15-42-.11Zm40.36-33L534,353h-43.7l10.89-20Z"/><path d="M87.64,390.27,87,385.64l5.66.18,4.69.76s4.56,1.89,9.12,3.86c6.49,2.81,8.41,3.84,9.74,8,.79,2.5-1.12,7.58-5.66,7.5-2.51,0-2.65-.73-6.21-3.35-2.39-1.76-7.62-5.64-9.21-7Z"/><path d="M190.76,223.3s-8.37-3.27-25.39-11.86c-6.16-3.11-17.73-9.88-24.93-21.71l-4.3-7.75c-4.67,12-2.72,20.54.51,25.87a25.16,25.16,0,0,0,5.29,6.22c-.94,7.57,1.55,12.47,3.42,18.93h-2.63c-5.51.72-7.78,4-7.78,4a12.08,12.08,0,0,0-2.4,5.81l10.18.21c2.64-.07,8.41,1,10.3,1.18,6.41.75,14,1.75,20.59,1.25,8.18-.63,22.57-2.25,26.35-2.52a41.65,41.65,0,0,1,8.68.12l5.75,2.54,5.57-8.47S203.1,227.49,190.76,223.3Zm-37.21,10.33.42-15.28c17.28,8.41,20.56,9.77,25.05,11.38,4.27,1.54,9.82,4,9.82,4S174.06,238.3,153.56,233.62Z"/><path d="M228.84,115.07h0L214.6,92l-23,.07a4.37,4.37,0,0,0-4.43,4.29,4.26,4.26,0,0,0,4.31,4.28l16.29,0,12.31,18.93a5.35,5.35,0,0,0,4.73,2.75,4.79,4.79,0,0,0,4-7.23Z"/><path d="M276.88,101.67A4.64,4.64,0,0,0,272.26,97H248.18a3.79,3.79,0,0,0-1.73.68,4.78,4.78,0,0,0-2.34,4,5.23,5.23,0,0,0,4.08,4.67c.25.09,24.36,0,24.41,0A4.78,4.78,0,0,0,276.88,101.67Z"/><path d="M334.36,352.87A4.56,4.56,0,0,0,329.9,348H304.45a4,4,0,0,0-1.8.71,5,5,0,0,0-2.44,4.17,5.45,5.45,0,0,0,4.25,4.87c.26.09,25.39,0,25.44,0A4.94,4.94,0,0,0,334.36,352.87Z"/><path d="M330,284.67a4.64,4.64,0,0,0-4.61-4.67H301.35a3.8,3.8,0,0,0-1.73.68,4.78,4.78,0,0,0-2.34,4,5.23,5.23,0,0,0,4.08,4.67c.25.09,24,0,24.08,0A5,5,0,0,0,330,284.67Z"/><path d="M417.57,299.9a5.18,5.18,0,0,0,1.46-7.18l-15-22.32a4.22,4.22,0,0,0-1.7-1.18,5.33,5.33,0,0,0-5.16.32c-2.11,1.42-2.64,4.59-1.79,6.68.07.29,15.11,22.6,15.14,22.64A5.33,5.33,0,0,0,417.57,299.9Z"/><path d="M333.28,212.85a4.67,4.67,0,0,0-4.46-4.85H305.53a3.52,3.52,0,0,0-1.67.7,5,5,0,0,0-2.26,4.16,5.32,5.32,0,0,0,3.94,4.85c.24.1,23.56,0,23.6,0A4.8,4.8,0,0,0,333.28,212.85Z"/><path d="M335.28,90H305.67l-16.41,28.9h0a5.88,5.88,0,0,0,2.14,7.77,5.74,5.74,0,0,0,7.8-1.52l.17-.27L313.52,101H335a5.51,5.51,0,0,0,5.24-5.43A5.44,5.44,0,0,0,335.28,90Z"/><path d="M287,292a5,5,0,0,0-6.67.95l0,0L264.4,316H233v0a5,5,0,0,0,0,9.93v0l36.74,0,18.76-27.42,0,0A5,5,0,0,0,287,292Z"/><path d="M372.65,277.51a5.84,5.84,0,0,0-9.55-6.66l0,0-.38.54v0l-21.87,31.2,20.31,25.18h0l.41.51,0,0a5.67,5.67,0,0,0,8.75-7.16l0,0-.41-.5h0l-14.7-18,17.48-25.07Z"/><path d="M391.9,200l0-.06,0,0-.26-.46,0,0a5.17,5.17,0,0,0-6.6-1.59,4.9,4.9,0,0,0-2,6.32l0,0L394,223.76l-15.59,20.79-.32.49a4.88,4.88,0,0,0,1.29,6.51,5.18,5.18,0,0,0,6.74-.85l0,0,19.69-27Z"/><path d="M404.64,127,429,94.2a3.21,3.21,0,0,0,1-2.35,2.65,2.65,0,0,0-.93-1.89l-8.93-7.9c-.59-.6-2.16-2-3.23-2a3,3,0,0,0-2.37,1.11L412.8,83.6,397.12,105H373.36l-15-23.6,16-24.4h28.51a5,5,0,1,0,0-10H368L344.88,81.11,364.74,113h36.38l17.93-23.51L420.87,91l-20.07,26H359.44l-25,39.06,20,31.44L333.29,220H302v.15h-.13a4.93,4.93,0,1,0,0,9.86h39.2l23.06-36,28.36,0,19,30.22L390,255H355.38l-27,38H296.2l-27.53,40.66L293,373h32.53l-23,32c-10.93,5.07-47.22,22.81-85.77,38C175.11,459.45,138,473.21,133,475c-10.82,3.84-20.63,7.46-28.11,8.66s-15.25-1.28-26.08-6.39c-4.69-2.22-10.08-4.19-14.08-9.15-1.48-1.84-1.3-3.77-1-6,.48-4.15,2-10.94,2.64-13.44,1.55-6.53,3.22-10.25,4.74-16.45,1.57-6.39,4.08-13.86,2.88-21.42-1-6.23-9.71-8.52-12.36-10.08s-5.07-2.78-2.64-8c1.75-3.81,3.87-4.79,5.95-7.5,1.09-1.42,2-5.44,2.75-6.78,6.12,5.4,9.27,7.61,15.1,7.92.42-4.62-1.12-7.33-2.29-8.44h0a3.05,3.05,0,0,0-.41-.32L76.8,375l-4.91-4.1L66,364.64c-4.51-6.76-11-13.36-10.33-17.32.43-2.37,7.55-8,8.88-9.48s3.47-3.49,5.23-5.76l8.09,3.3s2.46-16.19-1.08-24.12c-7-15.75-23.37-15.48-43.92-27-25.2-14.13-22.41-12.6,9.38-40.21,7.89-6.85,31.35-27.15,46.25-43.49,11.16-12.24,16.11-25.2,15.3-34.38-.6-6.81-5.62-17.5-6.41-24.92-1.69-15.91,1-19.49,2.51-23.66,0,0,2.77-6,13.62-25.41a239.86,239.86,0,0,1,28.08-40.68,486,486,0,0,1,34.76-37.75l2.17,3L163.2,32.61A4.2,4.2,0,0,0,161.41,36a4.72,4.72,0,0,0,4,4.8,4.25,4.25,0,0,0,3.08-.64L184.17,24h33.67l17.63,28.64L217.84,78H188.59s-4.5.72-4.5,5.11A4.87,4.87,0,0,0,189.22,88H218l17.38,27.9L224.79,131l-9.34,13,.13.61a5.94,5.94,0,0,0,10.31,5.88l0,0,0,0L246.72,120h36.87L304,86h32v-.55a4.75,4.75,0,0,0,4.73-4.68A4.68,4.68,0,0,0,336.08,76H296l-19.49,34h-32L227.88,82.88l20.47-30.32L225,15h-34.4l-3.48-5.66-2-3.25c-2.49-3.35-2.83-4.18-6.51-4.63-2.32-.28-5,.81-10.15,5.3A372.79,372.79,0,0,0,140.58,35.6C126.61,52.09,105,78.54,87.75,117c0,0-5.88,23,.72,37.46,3.09,6.8,3.12,14.11-.72,25.29-4.33,12.64-52.28,54.44-52.47,54.6L18.84,248.89s-6.28,5.84-8.18,7.45c-9.9,8.43-9.35,10.94-7.91,14.82,2.61,7,12.22,15.72,22.46,21.2,12,6.4,24.85,12.32,30.73,22.28,3.67,6.23,3.8,8.48,3,10.8-4.5,5.87-14.05,18.37-14.7,19.51-1.44,2.52.48,7.07.48,7.07s5.06,5.77,11.41,14.4c2.55,3.75,5.72,7.64-2.9,15.55-6.39,5.86-7.41,15.12-4.57,20.58,2.36,4.54,8.16,4.3,8.65,12.12.17,2.65,0,11.34-.37,15.63-1.19,8.51-2.52,18.93-3,22.16-1.18,8.24-2.66,12.21-.72,18.69,1.11,3.7,6.36,9.08,10.24,11.68,9.33,6.26,23.44,10.48,27.67,11.53,8.62,2.13,11.65,3.07,19,1.68,5.66-1.07,17.12-5.91,29.65-10.69,14-5.35,32.73-12.33,37.73-14.19,2.15-.8,20.24-8.12,41.87-17.25,37.41-15.78,91.73-41.06,91.73-41.06l31.59-44.63a9.83,9.83,0,0,0,1.56-3.17c.34-2.31-1.26-3.82-4.27-4-1.15-.05-3.41-.09-3.41-.09H300.32L283,333.48,302.76,303h32.91l26.94-39h35.59l27.5-39.78L400.6,185H365l-19.19-28.69L365,127Z"/></g></svg>