<svg xmlns="http://www.w3.org/2000/svg" viewBox="0 0 1444.93 500"><g style="fill:#fff"><path d="M79.59,156c-.65,4.31-1.46,8.7-2.44,12.93s-2,8.3-2.93,12.07h79.71v37.49c-1.18,21.16-5.82,39.84-13.31,56s-16.48,29.5-27,39.92a159.13,159.13,0,0,1-32.23,25.15,231.82,231.82,0,0,1-30.76,15.14,173.47,173.47,0,0,1-23.32,7.69c-6,1.38-9.41,1.83-9.41,1.83V325.58q.24.25,9.61-2.33a139.67,139.67,0,0,0,23-9.19Q64.15,307.45,79,294a110,110,0,0,0,24-31.12q9.12-17.64,12.28-44.85H59q-14.11,22.06-27.49,35.78T9.3,273.87Q.41,280.25-.07,280V232.7a63.53,63.53,0,0,0,5.47-4.53q5.23-4.53,12-14.58A172.63,172.63,0,0,0,30.7,189.7Q37.14,175.85,40.8,156Zm32.34,15V136h17v35Zm26,0V136h17v35Z"/><path d="M334.93,349h-154V170h154Zm-41-140h-74V311h74Z"/><path d="M353.93,276V238h113v38Z"/><path d="M463.78,352q.24-.25,4.66-10.23a300.9,300.9,0,0,0,10.3-28.37,345.86,345.86,0,0,0,10.42-43.6,332.05,332.05,0,0,0,4.78-55.9V163h38v50.9q0,33.86-3.55,59.67t-8.95,43.23Q514,334.22,506.93,352Zm173.31,0H596.14a182.18,182.18,0,0,1-14.22-35.19A379.53,379.53,0,0,1,573,273.57q-4-25.81-4-59.67V163h38v50.9a331.24,331.24,0,0,0,4.78,55.9,345.18,345.18,0,0,0,10.42,43.6,300.9,300.9,0,0,0,10.3,28.37Q636.84,351.76,637.09,352ZM616.93,198V163h17v35Zm26,0V163h17v35Z"/><path d="M645.73,352a327.06,327.06,0,0,0,13.72-33.15,266,266,0,0,0,9.43-36.93,251.06,251.06,0,0,0,4-46.68V166h37v69.23q-.25,38.52-6,64.84T692.78,339.2Q687.39,352,686.9,352Zm169.2-37.88q-13.11,15.38-27.19,24.17A124.48,124.48,0,0,1,761,351.23a118.71,118.71,0,0,1-21.24,5.25q-8.62,1.1-8.86.85V163h37V304.36a92.74,92.74,0,0,0,15.75-8.42,98.4,98.4,0,0,0,15.26-12.45q7.27-7.2,16-16.72Z"/><path d="M841.93,209V170h151v39h-55V311h60v38h-161V311h61V209Z"/><path d="M1014.93,273V158h38V273Zm35,50.55a116.37,116.37,0,0,0,22.23-7.2,60.25,60.25,0,0,0,17.66-12.57q8.27-8.3,14.57-21.85t6.54-33.57V159h37v89.36q-.25,30.52-9.75,51.88t-25.11,34.55q-15.6,13.18-29.62,18.92a159.85,159.85,0,0,1-23.52,7.93q-9.51,2.2-10,2.2Z"/><path d="M1169.93,276V238h113v38Z"/><path d="M1303.93,362V157h39v66h102v38h-102V362Z"/></g></svg>