<svg xmlns="http://www.w3.org/2000/svg" viewBox="0 0 1444.9 228.2" width="1445" height="228"><path fill="#fff" d="M79.6,20.1c-.7,4.3-1.5,8.7-2.4,12.9s-2,8.3-2.9,12.1h79.7V82.6c-1.2,21.2-5.8,39.8-13.3,56s-16.5,29.5-27,39.9a159.1,159.1,0,0,1-32.2,25.1,231.8,231.8,0,0,1-30.8,15.1,173.5,173.5,0,0,1-23.3,7.7c-6,1.4-9.4,1.8-9.4,1.8V189.7q.2.2,9.6-2.3a139.7,139.7,0,0,0,23-9.2q13.6-6.6,28.5-20.1a110,110,0,0,0,24-31.1q9.1-17.6,12.3-44.8H59q-14.1,22.1-27.5,35.8T9.3,138q-8.9,6.4-9.4,6.1V96.8a63.5,63.5,0,0,0,5.5-4.5q5.2-4.5,12-14.6A172.6,172.6,0,0,0,30.7,53.8Q37.1,40,40.8,20.1Zm32.3,15V.1h17v35Zm26,0V.1h17v35Zm197,178h-154V34.1h154Zm-41-140h-74v102h74Zm60,67v-38h113v38Zm109.8,76q.2-.2,4.7-10.2a300.9,300.9,0,0,0,10.3-28.4,345.9,345.9,0,0,0,10.4-43.6A332.1,332.1,0,0,0,493.9,78V27.1h38V78q0,33.9-3.6,59.7t-8.9,43.2q-5.4,17.4-12.5,35.2Zm173.3,0H596.1a182.2,182.2,0,0,1-14.2-35.2,379.5,379.5,0,0,1-8.9-43.2q-4-25.8-4-59.7V27.1h38V78a331.2,331.2,0,0,0,4.8,55.9,345.2,345.2,0,0,0,10.4,43.6,300.9,300.9,0,0,0,10.3,28.4Q636.8,215.9,637.1,216.1Zm-20.2-154v-35h17v35Zm26,0v-35h17v35Zm2.8,154A327.1,327.1,0,0,0,659.5,183a266,266,0,0,0,9.4-36.9,251.1,251.1,0,0,0,4-46.7V30.1h37V99.4q-.2,38.5-6,64.8t-11.1,39.1q-5.4,12.8-5.9,12.8Zm169.2-37.9q-13.1,15.4-27.2,24.2A124.5,124.5,0,0,1,761,215.4a118.7,118.7,0,0,1-21.2,5.2q-8.6,1.1-8.9.9V27.1h37V168.5a92.7,92.7,0,0,0,15.7-8.4,98.4,98.4,0,0,0,15.3-12.5q7.3-7.2,16-16.7Zm27-105.1v-39h151v39h-55v102h60v38h-161v-38h61V73.1Zm173,64V22.1h38v115Zm35,50.6a116.4,116.4,0,0,0,22.2-7.2,60.2,60.2,0,0,0,17.7-12.6q8.3-8.3,14.6-21.9t6.5-33.6V23.1h37v89.4q-.2,30.5-9.8,51.9t-25.1,34.5q-15.6,13.2-29.6,18.9a159.8,159.8,0,0,1-23.5,7.9l-10,2.2Zm120-47.6v-38h113v38Zm134,86V21.1h39v66h102v38h-102v101Z"/></svg>
